<svg width="240" height="240" viewBox="0 0 240 240" fill="none" xmlns="http://www.w3.org/2000/svg">
<circle cx="120" cy="120" r="120" fill="#121114"/>
<path d="M88.8526 195.44C83.7006 195.44 79.1726 194.32 75.2686 192.08C71.3966 189.808 68.3726 186.656 66.1966 182.624C64.0526 178.56 62.9806 173.856 62.9806 168.512C62.9806 162.848 64.0366 157.936 66.1486 153.776C68.2926 149.616 71.2686 146.4 75.0766 144.128C78.8846 141.856 83.3166 140.72 88.3726 140.72C93.6526 140.72 98.1486 141.952 101.861 144.416C105.573 146.848 108.341 150.32 110.165 154.832C112.021 159.344 112.757 164.704 112.373 170.912H102.341V167.264C102.277 161.248 101.125 156.8 98.8846 153.92C96.6766 151.04 93.3006 149.6 88.7566 149.6C83.7326 149.6 79.9566 151.184 77.4286 154.352C74.9006 157.52 73.6366 162.096 73.6366 168.08C73.6366 173.776 74.9006 178.192 77.4286 181.328C79.9566 184.432 83.6046 185.984 88.3726 185.984C91.5086 185.984 94.2126 185.28 96.4846 183.872C98.7886 182.432 100.581 180.384 101.861 177.728L111.701 180.848C109.685 185.488 106.629 189.088 102.533 191.648C98.4366 194.176 93.8766 195.44 88.8526 195.44ZM70.3726 170.912V163.088H107.381V170.912H70.3726ZM115.507 194L134.899 167.792L115.939 142.16H127.843L140.755 159.968L153.523 142.16H165.427L146.467 167.792L165.907 194H153.955L140.755 175.616L127.459 194H115.507Z" fill="#FF40A7"/>
<line x1="145" y1="122.113" x2="181" y2="122.113" stroke="#FF40A7" stroke-width="8"/>
</svg>
